# xmcd CD database file
#
# Track frame offsets:
#	150
#	12722
#	32762
#	58753
#	83541
#	117654
#	139641
#	164363
#	197472
#	223677
#	249600
#	272107
#	297080
#
# Disc length: 4195 seconds
#
# Revision: 0
# Processed by: cddbd v1.5.1PL0 Copyright (c) Steve Scherf et al.
# Submitted via: CDex 1.50
#
DISCID=c010610d
DTITLE=Flip Phillips Quartet - Live at the Beowulf. Arbors Historical Series, Volume 5
DYEAR=1978
DGENRE=Jazz
TTITLE0=Someone to Watch Over Me
TTITLE1=I Loves You, Porgy
TTITLE2=Chloe
TTITLE3=Christian Scientist
TTITLE4=A Closer Walk With Thee
TTITLE5=After the Lovin'
TTITLE6=30 Years Later
TTITLE7=Tears
TTITLE8=I Hadn't Anyone Till You
TTITLE9=I Won't Last a Day Without You
TTITLE10=Sultry Serenade
TTITLE11=Symphony
TTITLE12=Spanish Eyes
EXTD=YEAR: 1978
EXTT0=
EXTT1=
EXTT2=
EXTT3=
EXTT4=
EXTT5=
EXTT6=
EXTT7=
EXTT8=
EXTT9=
EXTT10=
EXTT11=
EXTT12=
PLAYORDER=
